<svg width="418" height="415" viewBox="0 0 418 415" fill="none" xmlns="http://www.w3.org/2000/svg">
<circle cx="209.5" cy="207.5" r="207.5" fill="#8D5BFF"/>
<circle cx="211" cy="208" r="167.5" fill="#B798FF" stroke="#DDCEFF"/>
<g clip-path="url(#clip0_1_47)">
<path d="M67.6738 103.025C64.318 103.029 61.1008 104.365 58.7279 106.74C56.355 109.115 55.0203 112.335 55.0165 115.694V253.432C55.0203 256.791 56.355 260.011 58.7279 262.386C61.1008 264.761 64.318 266.097 67.6738 266.101H352.896C356.252 266.097 359.469 264.761 361.842 262.386C364.215 260.011 365.549 256.791 365.553 253.432V115.694C365.549 112.335 364.215 109.115 361.842 106.74C359.469 104.365 356.252 103.029 352.896 103.025H67.6738Z" fill="white"/>
<path d="M352.896 266.595H67.6738C64.1871 266.591 60.8444 265.203 58.379 262.735C55.9136 260.268 54.5268 256.922 54.5228 253.432V115.694C54.5268 112.204 55.9136 108.858 58.379 106.39C60.8444 103.923 64.1871 102.535 67.6738 102.531H352.896C356.382 102.535 359.725 103.923 362.191 106.39C364.656 108.858 366.043 112.204 366.047 115.694V253.432C366.043 256.922 364.656 260.268 362.191 262.735C359.725 265.203 356.382 266.591 352.896 266.595ZM67.6738 103.519C64.4489 103.523 61.3572 104.806 59.0768 107.089C56.7965 109.371 55.5138 112.466 55.5102 115.694V253.432C55.5138 256.66 56.7965 259.754 59.0768 262.037C61.3572 264.319 64.4489 265.603 67.6738 265.607H352.896C356.121 265.603 359.212 264.319 361.493 262.037C363.773 259.754 365.056 256.66 365.059 253.432V115.694C365.056 112.466 363.773 109.371 361.493 107.089C359.212 104.806 356.121 103.523 352.896 103.519H67.6738Z" fill="#3F3D56"/>
<path d="M149.972 258.88C149.994 258.327 148.301 257.811 146.191 257.727C144.081 257.643 142.353 258.024 142.331 258.577C142.309 259.13 144.002 259.646 146.112 259.73C148.222 259.814 149.95 259.433 149.972 258.88Z" fill="#E6E6E6"/>
<path d="M174.313 257.59C174.335 257.037 172.642 256.52 170.532 256.436C168.422 256.353 166.693 256.733 166.671 257.286C166.649 257.839 168.342 258.356 170.452 258.439C172.563 258.523 174.291 258.143 174.313 257.59Z" fill="#3F3D56"/>
<path d="M140.62 251.362C140.642 250.809 138.949 250.293 136.839 250.209C134.729 250.125 133 250.506 132.978 251.059C132.957 251.612 134.649 252.128 136.76 252.212C138.87 252.296 140.598 251.915 140.62 251.362Z" fill="#FF6584"/>
<path d="M128.864 248.616C128.92 248.122 128.209 247.635 127.275 247.529C126.342 247.422 125.54 247.736 125.483 248.23C125.427 248.724 126.138 249.211 127.072 249.317C128.005 249.423 128.807 249.11 128.864 248.616Z" fill="#E6E6E6"/>
<path d="M123.246 242.857C123.302 242.363 122.591 241.877 121.658 241.77C120.724 241.664 119.922 241.978 119.866 242.472C119.81 242.965 120.521 243.452 121.454 243.558C122.388 243.665 123.19 243.351 123.246 242.857Z" fill="#3F3D56"/>
<path d="M154.992 252.662C155.048 252.169 154.337 251.682 153.403 251.576C152.47 251.469 151.668 251.783 151.611 252.277C151.555 252.771 152.266 253.257 153.2 253.364C154.133 253.47 154.935 253.156 154.992 252.662Z" fill="#E6E6E6"/>
<path d="M143.852 255.113C143.908 254.619 143.197 254.132 142.263 254.026C141.33 253.92 140.528 254.233 140.471 254.727C140.415 255.221 141.126 255.708 142.06 255.814C142.993 255.921 143.795 255.607 143.852 255.113Z" fill="#FF6584"/>
<path d="M161.87 259.06C161.926 258.566 161.215 258.08 160.282 257.973C159.348 257.867 158.546 258.181 158.49 258.674C158.434 259.168 159.145 259.655 160.078 259.761C161.012 259.868 161.814 259.554 161.87 259.06Z" fill="#3F3D56"/>
<path d="M2.60032e-06 238.626C-0.000227498 238.703 0.0148153 238.78 0.0442604 238.851C0.0737055 238.923 0.116976 238.988 0.17158 239.043C0.226183 239.097 0.291041 239.14 0.362427 239.17C0.433813 239.199 0.510317 239.214 0.587536 239.214H417.413C417.568 239.214 417.718 239.152 417.828 239.042C417.938 238.932 418 238.782 418 238.626C418 238.47 417.938 238.321 417.828 238.21C417.718 238.1 417.568 238.038 417.413 238.038H0.587505C0.51029 238.038 0.433794 238.053 0.362412 238.082C0.29103 238.112 0.226172 238.155 0.171572 238.21C0.116972 238.264 0.0737046 238.329 0.0442604 238.401C0.0148163 238.472 -0.000224858 238.549 2.60032e-06 238.626Z" fill="#DDCEFF"/>
<path d="M142.476 228.237C142.192 228.25 141.911 228.175 141.671 228.023C141.431 227.871 141.243 227.648 141.133 227.386C141.024 227.123 140.997 226.834 141.058 226.556C141.118 226.278 141.263 226.025 141.471 225.832L141.566 225.454C141.554 225.424 141.541 225.394 141.529 225.363C141.243 224.687 140.763 224.111 140.151 223.706C139.539 223.302 138.821 223.087 138.087 223.09C137.354 223.093 136.637 223.313 136.028 223.722C135.419 224.131 134.944 224.711 134.663 225.389C133.54 228.096 132.11 230.808 131.758 233.67C131.603 234.935 131.668 236.218 131.951 237.461C129.314 231.702 127.944 225.443 127.936 219.108C127.935 217.518 128.023 215.93 128.2 214.35C128.346 213.055 128.548 211.769 128.807 210.492C130.221 203.565 133.256 197.072 137.663 191.547C139.797 190.382 141.522 188.59 142.606 186.414C142.999 185.631 143.277 184.796 143.431 183.934C143.19 183.966 142.523 180.297 142.705 180.072C142.37 179.563 141.769 179.31 141.403 178.813C139.582 176.341 137.072 176.772 135.762 180.131C132.963 181.545 132.936 183.89 134.654 186.145C135.746 187.58 135.896 189.521 136.855 191.057C136.756 191.183 136.654 191.306 136.555 191.432C134.752 193.753 133.181 196.244 131.864 198.871C132.184 195.928 131.802 192.951 130.748 190.184C129.681 187.606 127.679 185.435 125.917 183.206C123.8 180.529 119.459 181.697 119.086 185.091C119.083 185.124 119.079 185.157 119.076 185.19C119.337 185.337 119.594 185.494 119.844 185.66C120.159 185.871 120.403 186.172 120.545 186.524C120.686 186.875 120.717 187.262 120.636 187.632C120.554 188.002 120.362 188.339 120.085 188.598C119.809 188.857 119.461 189.027 119.086 189.085L119.048 189.091C119.141 190.035 119.306 190.971 119.541 191.89C117.28 200.642 122.161 203.83 129.131 203.973C129.285 204.052 129.435 204.131 129.589 204.206C128.265 207.96 127.435 211.87 127.119 215.838C126.94 218.179 126.951 220.531 127.151 222.871L127.139 222.788C126.634 220.186 125.247 217.839 123.214 216.142C120.193 213.659 115.926 212.744 112.667 210.748C112.321 210.525 111.918 210.406 111.506 210.405C111.095 210.404 110.692 210.521 110.344 210.742C109.997 210.963 109.72 211.279 109.546 211.652C109.372 212.025 109.308 212.441 109.362 212.849C109.366 212.878 109.371 212.907 109.375 212.936C109.861 213.134 110.334 213.362 110.792 213.619C111.053 213.767 111.31 213.924 111.56 214.09C111.875 214.301 112.119 214.601 112.26 214.953C112.402 215.305 112.433 215.691 112.351 216.062C112.269 216.432 112.078 216.769 111.801 217.028C111.525 217.287 111.177 217.457 110.802 217.514L110.764 217.52C110.736 217.524 110.713 217.528 110.685 217.532C111.515 219.516 112.68 221.342 114.129 222.93C115.543 230.57 121.614 231.295 128.109 229.07H128.113C128.826 232.17 129.858 235.187 131.194 238.073H142.2C142.239 237.95 142.275 237.824 142.31 237.701C141.292 237.766 140.269 237.705 139.265 237.52C140.082 236.517 140.898 235.506 141.715 234.503C141.733 234.484 141.75 234.465 141.766 234.444C142.18 233.931 142.598 233.421 143.013 232.908L143.013 232.907C143.035 231.334 142.854 229.764 142.476 228.237Z" fill="#F2F2F2"/>
<path d="M87.5333 222.124C87.073 222.145 86.6173 222.024 86.228 221.778C85.8387 221.531 85.5345 221.17 85.3567 220.745C85.179 220.319 85.1362 219.849 85.2342 219.399C85.3322 218.948 85.5662 218.538 85.9046 218.225C85.9612 218 86.0019 217.838 86.0586 217.612C86.0383 217.563 86.0179 217.514 85.9974 217.465C85.5337 216.369 84.7566 215.434 83.7639 214.778C82.7711 214.123 81.6069 213.775 80.4175 213.78C79.2281 213.784 78.0665 214.14 77.0786 214.803C76.0907 215.466 75.3207 216.407 74.8651 217.507C73.0443 221.896 70.7262 226.293 70.1554 230.934C69.9041 232.986 70.0101 235.065 70.4689 237.08C66.1924 227.743 63.9718 217.594 63.9575 207.322C63.9566 204.745 64.0997 202.169 64.386 199.608C64.6227 197.508 64.9511 195.423 65.3711 193.352C67.6632 182.12 72.5844 171.593 79.7305 162.634C83.1892 160.745 85.9863 157.84 87.7449 154.311C88.382 153.043 88.8323 151.688 89.0817 150.291C88.6916 150.342 87.6106 144.394 87.9048 144.029C87.3611 143.203 86.388 142.793 85.7941 141.987C82.8407 137.979 78.7717 138.679 76.6475 144.125C72.1098 146.418 72.0658 150.219 74.8502 153.876C76.6216 156.202 76.865 159.35 78.4193 161.84C78.2593 162.045 78.0931 162.244 77.9332 162.449C75.0101 166.211 72.4624 170.251 70.3267 174.511C70.846 169.738 70.2262 164.911 68.518 160.425C66.7868 156.245 63.5418 152.724 60.6843 149.11C57.2519 144.77 50.2135 146.664 49.6088 152.167C49.603 152.22 49.5973 152.273 49.5917 152.327C50.0161 152.566 50.4316 152.821 50.8381 153.09C51.3488 153.431 51.7445 153.919 51.9734 154.49C52.2022 155.06 52.2536 155.687 52.1208 156.287C51.9879 156.887 51.677 157.433 51.2289 157.853C50.7807 158.274 50.2161 158.549 49.6091 158.642L49.5469 158.652C49.6981 160.183 49.9654 161.701 50.3464 163.191C46.6805 177.382 54.5949 182.55 65.8955 182.782C66.145 182.91 66.3881 183.038 66.6375 183.16C64.4918 189.247 63.1458 195.587 62.6335 202.021C62.3435 205.817 62.3606 209.631 62.6847 213.424L62.6655 213.289C61.8467 209.071 59.5988 205.265 56.3013 202.514C51.4036 198.487 44.4842 197.004 39.2006 193.767C36.6572 192.209 33.398 194.223 33.8419 197.174C33.849 197.221 33.8562 197.268 33.8635 197.316C34.6511 197.637 35.418 198.007 36.1597 198.423C36.5841 198.663 36.9996 198.917 37.4061 199.186C37.9168 199.528 38.3125 200.016 38.5414 200.586C38.7703 201.157 38.8216 201.783 38.6888 202.383C38.5559 202.984 38.2451 203.53 37.7969 203.95C37.3487 204.37 36.7841 204.645 36.1771 204.739L36.1149 204.749C36.0701 204.755 36.0317 204.761 35.987 204.768C37.3328 207.984 39.2216 210.945 41.5708 213.52C43.863 225.907 53.7079 227.083 64.2389 223.475H64.2453C65.4008 228.501 67.0749 233.393 69.2408 238.073H87.0861C87.1501 237.874 87.2076 237.669 87.2652 237.471C85.6134 237.575 83.9551 237.476 82.3273 237.176C83.6513 235.55 84.9753 233.911 86.2994 232.285C86.3289 232.255 86.3567 232.222 86.3825 232.189C87.0541 231.357 87.7321 230.531 88.4037 229.698L88.4041 229.697C88.4399 227.146 88.1474 224.601 87.5338 222.124L87.5333 222.124Z" fill="#F2F2F2"/>
<path d="M331.76 83.9151C330.562 74.7236 309.381 75.31 307.381 83.9577C306.32 83.2935 303.622 83.7532 302.615 84.5166C301.609 85.28 300.964 86.4023 300.332 87.4917C299.47 89.0049 298.576 90.5722 298.385 92.3071C298.186 94.0387 298.866 96.0004 300.434 96.7714C301.679 97.3859 304.416 96.9709 305.784 96.6959C306.739 96.5059 307.54 96.3396 308.22 96.1764C308.448 95.1002 308.29 93.9778 307.775 93.0062C308.324 93.1154 308.843 93.345 309.293 93.6785C309.743 94.012 310.114 94.4412 310.38 94.9352C310.487 95.1421 314.367 124.381 314.367 124.381C315.428 124.509 316.499 124.535 317.564 124.46C318.226 120.862 318.346 117.185 317.921 113.551C319.045 115.628 319.934 117.824 320.572 120.098C320.937 121.37 321.238 122.66 321.472 123.963C330.707 122.234 343.191 116.28 345.469 106.171C345.456 106.138 345.443 106.106 345.431 106.073C345.306 105.764 345.293 105.421 345.393 105.104C345.493 104.786 345.701 104.513 345.98 104.332C346.259 104.15 346.592 104.071 346.923 104.109C347.254 104.147 347.561 104.298 347.793 104.538C348.071 104.824 348.319 105.069 348.529 105.259C347.719 98.8033 342.827 92.9937 331.76 83.9151Z" fill="#2F2E41"/>
<path d="M196.915 309.023L191.738 306.314L199.948 284.588L207.59 288.588L196.915 309.023Z" fill="#A0616A"/>
<path d="M176.023 308.761C175.703 309.376 175.639 310.093 175.846 310.754C176.053 311.416 176.514 311.968 177.127 312.29L187.422 317.677L191.111 314.933L189.888 318.965L193.771 321L199.522 307.33L198.211 306.544L192.87 303.324L191.145 302.288L189.208 305.997L178.017 307.378C177.598 307.43 177.197 307.583 176.85 307.824C176.503 308.065 176.219 308.386 176.023 308.761Z" fill="#2F2E41"/>
<path d="M191.611 229.044L187.845 224.573L203.667 207.581L209.225 214.18L191.611 229.044Z" fill="#A0616A"/>
<path d="M172.376 220.878C171.847 221.325 171.516 221.965 171.458 222.655C171.399 223.346 171.616 224.032 172.062 224.563L179.55 233.452L184.003 232.312L181.344 235.579L184.167 238.935L194.664 228.466L193.748 227.241L190.025 222.235L188.82 220.623L185.624 223.32L174.744 220.354C174.337 220.243 173.908 220.233 173.496 220.324C173.083 220.415 172.699 220.606 172.376 220.878Z" fill="#2F2E41"/>
<path d="M357.7 212.29C357.7 212.29 373.689 246.545 307.477 237.314C307.477 237.314 272.2 198.182 273.219 193.474C273.219 193.474 258.205 178.203 258.939 177.925C259.674 177.647 260.127 177.043 258.913 177.098C257.699 177.152 257.699 175.343 257.699 175.343C257.699 175.343 230.565 204.798 207.717 219.413L199.818 210.518C199.818 210.518 202.899 200.873 204.38 200.873C205.861 200.873 206.371 201.229 206.61 199.321C206.848 197.413 205.669 195.775 207.246 195.606C208.823 195.437 241.51 157.198 241.51 157.198C241.51 157.198 245.036 144.603 255.811 147.041C266.586 149.479 322.574 195.042 322.574 195.042L357.7 212.29Z" fill="#2F2E41"/>
<path d="M330.738 238.424L243.263 237.698L205.249 297.987L194.506 292.294L196.887 291.288C196.887 291.288 196.166 282.909 197.049 280.787C197.933 278.666 200.56 279.304 200.56 279.304L222.724 228.143C224.252 223.602 227.255 219.703 231.254 217.068C235.253 214.434 240.017 213.214 244.789 213.604C263.128 210.926 292.898 213.065 323.826 215.692L330.738 238.424Z" fill="#2F2E41"/>
<path d="M280.093 135.819C281.758 136.075 283.258 136.97 284.273 138.316C285.288 139.661 285.739 141.35 285.529 143.023C285.481 143.362 285.405 143.697 285.302 144.024L303.276 157.671L299.567 169.236L276.964 147.877C275.643 147.344 274.536 146.388 273.815 145.159C273.094 143.93 272.799 142.496 272.978 141.082C273.087 140.278 273.354 139.504 273.762 138.803C274.17 138.102 274.712 137.489 275.357 136.998C276.003 136.507 276.738 136.148 277.522 135.941C278.305 135.735 279.122 135.685 279.925 135.794C279.981 135.802 280.037 135.81 280.093 135.819Z" fill="#A0616A"/>
<path d="M359.387 136.671L352.924 154.58L327.652 190.328C327.652 190.328 327.445 190.239 327.069 190.081C324.897 189.142 317.008 185.693 309.588 181.774C302.621 178.092 296.06 173.996 295.043 171.179C294.935 170.882 294.836 170.596 294.747 170.319V170.314C294.273 168.88 293.976 167.393 293.863 165.886C293.779 164.725 293.853 164.102 293.695 164.028C293.572 163.974 293.315 164.241 292.748 164.844C292.708 164.883 292.673 164.923 292.634 164.957C290.58 167.018 288.057 166.751 288.674 165.773C289.306 164.77 288.976 164.789 288.047 163.742C287.356 162.961 285.11 159.907 284.004 158.4C283.624 157.881 283.382 157.545 283.382 157.545L283.762 156.947L284.814 155.296L289.815 147.449L290.091 147.019C290.091 147.019 300.37 149.396 301.738 151.654C303.11 153.913 299.669 153.838 303.11 153.913C306.551 153.987 310.061 149.302 307.549 153.962C305.036 158.617 305.697 160.243 308.807 159.507C310.071 159.205 312.071 160.159 313.996 161.394V161.399C315.2 162.182 316.362 163.029 317.477 163.934C318.667 164.893 319.471 165.62 319.471 165.62L338.992 125.977L341.155 121.589C341.814 120.254 342.732 119.063 343.856 118.087C344.98 117.112 346.287 116.37 347.701 115.906L348.377 117.087C352.589 123.295 356.271 129.846 359.387 136.671Z" fill="#7134FF"/>
<path d="M360.468 193.511C366.452 194.904 360.086 238.502 352.954 238.638C301.116 239.627 316.899 210.515 314.12 207.728C311.34 204.936 308.832 206.937 311.34 202.593C313.167 199.431 315.877 199.9 315.917 198.126C315.937 197.464 315.586 196.495 314.678 194.904C311.34 189.053 311.34 187.309 311.34 187.309C310.508 185.552 309.919 183.69 309.588 181.774C309.046 178.925 308.979 176.006 309.39 173.136C310.017 168.925 311.592 164.911 313.996 161.399V161.394C314.248 161.019 314.51 160.638 314.786 160.263C315.413 159.408 318.889 159.571 318.889 159.571L326.294 128.438L322.009 116.025L342.305 106.507L347.701 115.906L348.377 117.087C352.589 123.295 356.271 129.846 359.387 136.671C362.384 143.347 364.847 150.76 364.936 157.209C365.173 174.025 362.275 179.026 362.275 179.026C362.275 179.026 369.31 184.289 365.79 187.506C362.275 190.728 354.485 192.117 360.468 193.511Z" fill="#7134FF"/>
<path d="M268.522 131.723L265.21 134.241C264.556 134.742 264.127 135.482 264.017 136.298C263.907 137.115 264.124 137.943 264.622 138.599L272.598 149.092L277.307 155.283C277.806 155.936 278.544 156.365 279.359 156.476C280.174 156.586 280.999 156.368 281.654 155.871L284.969 153.35C285.621 152.848 286.048 152.108 286.157 151.293C286.266 150.477 286.05 149.651 285.554 148.995L285.065 148.348L275.403 135.642L272.869 132.311C272.622 131.987 272.314 131.714 271.962 131.509C271.61 131.304 271.221 131.17 270.817 131.116C270.413 131.061 270.003 131.087 269.609 131.191C269.215 131.295 268.846 131.476 268.522 131.723Z" fill="#3F3D56"/>
<path d="M270.254 131.533L266.686 134.024C266.372 134.23 266.104 134.5 265.902 134.817C265.699 135.134 265.566 135.49 265.511 135.863C265.456 136.235 265.48 136.614 265.583 136.976C265.685 137.339 265.863 137.675 266.104 137.963L270.774 143.595L273.262 146.595L274.922 148.596L278.635 153.074C279.16 153.675 279.888 154.061 280.679 154.16C281.47 154.258 282.27 154.062 282.926 153.608L285.599 151.742L286.489 151.121C286.932 150.825 287.278 150.404 287.483 149.912C287.689 149.42 287.744 148.878 287.643 148.354C287.554 147.919 287.357 147.513 287.072 147.174L276.1 133.94L274.545 132.067C274.02 131.466 273.293 131.079 272.501 130.98C271.71 130.881 270.909 131.078 270.254 131.533Z" fill="#7134FF"/>
<path d="M272.533 145.442C274.198 145.697 275.698 146.593 276.713 147.938C277.729 149.284 278.179 150.972 277.97 152.645C277.922 152.985 277.846 153.32 277.743 153.647L295.717 167.293L292.008 178.859L269.405 157.5C268.084 156.967 266.976 156.011 266.255 154.782C265.534 153.552 265.24 152.119 265.418 150.704C265.528 149.9 265.794 149.126 266.202 148.425C266.611 147.725 267.153 147.111 267.798 146.62C268.443 146.129 269.178 145.77 269.962 145.564C270.746 145.357 271.563 145.307 272.366 145.417C272.422 145.424 272.477 145.433 272.533 145.442Z" fill="#A0616A"/>
<path d="M345.84 125.203C347.411 125.523 348.895 126.178 350.19 127.123C351.486 128.069 352.563 129.283 353.348 130.682C354.133 132.081 354.608 133.633 354.74 135.233C354.873 136.832 354.659 138.441 354.115 139.951L345.367 164.201L320.091 199.953C320.091 199.953 289.778 187.136 287.482 180.801C285.187 174.467 287.26 172.281 285.187 174.467C283.115 176.652 280.487 176.393 281.116 175.393C281.745 174.393 281.414 174.414 280.488 173.366C279.562 172.318 275.823 167.169 275.823 167.169L282.532 156.642C282.532 156.642 292.811 159.018 294.18 161.277C295.55 163.537 292.108 163.463 295.55 163.537C298.992 163.611 302.503 158.925 299.989 163.583C297.475 168.242 298.138 169.866 301.248 169.128C304.359 168.39 311.91 175.243 311.91 175.243L333.597 131.213C334.688 128.998 336.481 127.207 338.696 126.12C340.91 125.033 343.423 124.71 345.84 125.203Z" fill="#7134FF"/>
<path d="M332.906 110.605C339.19 104.315 339.19 94.1177 332.906 87.8279C326.622 81.5381 316.434 81.5381 310.15 87.8279C303.866 94.1177 303.866 104.315 310.15 110.605C316.434 116.895 326.622 116.895 332.906 110.605Z" fill="#A0616A"/>
<path d="M340.344 81.6705C339.145 72.479 317.965 73.0653 315.965 81.713C314.904 81.0489 312.205 81.5086 311.199 82.272C310.192 83.0354 309.547 84.1577 308.915 85.2471C308.053 86.7602 302.02 91.8795 301.116 90.387C299.081 87.028 295.091 94.3679 298.153 99.282C298.888 100.46 313.078 98.5688 314.446 98.2937C315.4 98.1038 313.766 98.4568 314.446 98.2937C314.665 97.2276 316.882 91.7194 316.358 90.7616C316.907 90.8708 317.426 91.1004 317.876 91.4339C318.327 91.7674 318.698 92.1965 318.963 92.6905C319.07 92.8975 322.951 122.136 322.951 122.136C324.011 122.264 325.082 122.291 326.148 122.216C326.809 118.617 326.929 114.94 326.505 111.306C327.628 113.383 328.517 115.579 329.155 117.854C329.521 119.126 329.821 120.415 330.055 121.718C339.29 119.99 351.774 114.036 354.052 103.926C341.599 99.7762 351.41 90.7491 340.344 81.6705Z" fill="#2F2E41"/>
<path d="M199.5 127.859C199.706 126.439 198.22 125.047 196.182 124.75C194.143 124.453 192.322 125.364 192.116 126.783C191.91 128.203 193.395 129.595 195.434 129.892C197.473 130.189 199.293 129.278 199.5 127.859Z" fill="#E6E6E6"/>
<path d="M223.776 125.488C223.982 124.068 222.496 122.676 220.457 122.379C218.418 122.082 216.598 122.992 216.392 124.412C216.186 125.832 217.671 127.224 219.71 127.521C221.749 127.818 223.569 126.907 223.776 125.488Z" fill="#3F3D56"/>
<path d="M192.852 108.187C193.059 106.767 191.573 105.375 189.534 105.078C187.495 104.781 185.675 105.691 185.469 107.111C185.262 108.531 186.748 109.923 188.787 110.22C190.826 110.517 192.646 109.606 192.852 108.187Z" fill="#FF6584"/>
<path d="M182.304 100.129C182.314 98.8252 181.587 97.763 180.681 97.7562C179.776 97.7493 179.033 98.8004 179.023 100.104C179.014 101.407 179.74 102.469 180.646 102.476C181.552 102.483 182.294 101.432 182.304 100.129Z" fill="#E6E6E6"/>
<path d="M178.727 85.1198C178.736 83.8165 178.01 82.7543 177.104 82.7474C176.198 82.7406 175.456 83.7916 175.446 85.095C175.436 86.3984 176.163 87.4606 177.069 87.4674C177.974 87.4743 178.717 86.4232 178.727 85.1198Z" fill="#3F3D56"/>
<path d="M206.544 111.534C206.554 110.231 205.828 109.169 204.922 109.162C204.016 109.155 203.274 110.206 203.264 111.509C203.254 112.813 203.98 113.875 204.886 113.882C205.792 113.889 206.534 112.838 206.544 111.534Z" fill="#E6E6E6"/>
<path d="M194.813 117.397C194.823 116.094 194.096 115.032 193.191 115.025C192.285 115.018 191.542 116.069 191.533 117.372C191.523 118.676 192.249 119.738 193.155 119.745C194.061 119.752 194.803 118.7 194.813 117.397Z" fill="#FF6584"/>
<path d="M211.143 128.233C211.153 126.93 210.427 125.868 209.521 125.861C208.615 125.854 207.873 126.905 207.863 128.208C207.853 129.512 208.579 130.574 209.485 130.581C210.391 130.588 211.133 129.537 211.143 128.233Z" fill="#3F3D56"/>
<path d="M267.185 142.092C267.407 141.934 267.265 141.355 266.869 140.8C266.473 140.245 265.971 139.924 265.75 140.082C265.528 140.241 265.669 140.82 266.066 141.375C266.462 141.93 266.963 142.251 267.185 142.092Z" fill="#3F3D56"/>
<path d="M265.704 140.116C265.926 139.957 265.784 139.378 265.388 138.823C264.991 138.268 264.49 137.947 264.268 138.106C264.047 138.264 264.188 138.843 264.585 139.398C264.981 139.953 265.482 140.274 265.704 140.116Z" fill="#3F3D56"/>
</g>
<defs>
<clipPath id="clip0_1_47">
<rect width="418" height="246" fill="white" transform="translate(0 75)"/>
</clipPath>
</defs>
</svg>
